<svg xmlns="http://www.w3.org/2000/svg" xmlns:xlink="http://www.w3.org/1999/xlink" viewBox="170 270 468 270" preserveAspectRatio="xMidYMid meet" version="1.0"><defs><g/></defs><g transform="matrix(1, 0, 0, 1, 170, 270)"><g fill="#ffffff" fill-opacity="1"><g transform="translate(1.13561, 234.660674)"><g><path d="M 45.5625 1.359375 C 40.664062 1.359375 36.40625 0.453125 32.78125 -1.359375 C 29.15625 -3.171875 26.296875 -5.570312 24.203125 -8.5625 L 24.203125 24.75 L 9.515625 24.75 L 9.515625 -63.921875 L 23.671875 -63.921875 L 23.671875 -54.40625 C 25.660156 -57.664062 28.515625 -60.289062 32.234375 -62.28125 C 35.953125 -64.28125 40.394531 -65.28125 45.5625 -65.28125 C 49.914062 -65.28125 53.953125 -64.507812 57.671875 -62.96875 C 61.390625 -61.425781 64.628906 -59.226562 67.390625 -56.375 C 70.160156 -53.519531 72.316406 -50.03125 73.859375 -45.90625 C 75.398438 -41.78125 76.171875 -37.132812 76.171875 -31.96875 C 76.171875 -26.789062 75.398438 -22.140625 73.859375 -18.015625 C 72.316406 -13.890625 70.160156 -10.398438 67.390625 -7.546875 C 64.628906 -4.691406 61.390625 -2.492188 57.671875 -0.953125 C 53.953125 0.585938 49.914062 1.359375 45.5625 1.359375 Z M 42.296875 -11.421875 C 47.828125 -11.421875 52.335938 -13.253906 55.828125 -16.921875 C 59.328125 -20.597656 61.078125 -25.613281 61.078125 -31.96875 C 61.078125 -38.3125 59.328125 -43.316406 55.828125 -46.984375 C 52.335938 -50.660156 47.828125 -52.5 42.296875 -52.5 C 36.859375 -52.5 32.394531 -50.660156 28.90625 -46.984375 C 25.414062 -43.316406 23.671875 -38.3125 23.671875 -31.96875 C 23.671875 -25.613281 25.414062 -20.597656 28.90625 -16.921875 C 32.394531 -13.253906 36.859375 -11.421875 42.296875 -11.421875 Z M 42.296875 -11.421875 "/></g></g></g><g fill="#ffffff" fill-opacity="1"><g transform="translate(80.571079, 234.660674)"><g><path d="M 9.515625 0 L 9.515625 -63.921875 L 23.671875 -63.921875 L 23.671875 -53.1875 C 25.390625 -57.082031 27.765625 -59.984375 30.796875 -61.890625 C 33.835938 -63.796875 37.265625 -64.75 41.078125 -64.75 C 42.253906 -64.75 43.363281 -64.675781 44.40625 -64.53125 C 45.445312 -64.394531 46.242188 -64.191406 46.796875 -63.921875 L 46.796875 -49.921875 C 45.523438 -50.191406 44.273438 -50.414062 43.046875 -50.59375 C 41.828125 -50.78125 40.582031 -50.875 39.3125 -50.875 C 34.957031 -50.875 31.347656 -49.148438 28.484375 -45.703125 C 25.628906 -42.253906 24.203125 -37.3125 24.203125 -30.875 L 24.203125 0 Z M 9.515625 0 "/></g></g></g><g fill="#ffffff" fill-opacity="1"><g transform="translate(126.137591, 234.660674)"><g><path d="M 40.125 1.359375 C 35.132812 1.359375 30.550781 0.566406 26.375 -1.015625 C 22.207031 -2.609375 18.628906 -4.851562 15.640625 -7.75 C 12.648438 -10.65625 10.316406 -14.144531 8.640625 -18.21875 C 6.960938 -22.300781 6.125 -26.882812 6.125 -31.96875 C 6.125 -36.945312 6.960938 -41.5 8.640625 -45.625 C 10.316406 -49.757812 12.648438 -53.273438 15.640625 -56.171875 C 18.628906 -59.078125 22.207031 -61.320312 26.375 -62.90625 C 30.550781 -64.488281 35.132812 -65.28125 40.125 -65.28125 C 45.113281 -65.28125 49.691406 -64.488281 53.859375 -62.90625 C 58.035156 -61.320312 61.617188 -59.078125 64.609375 -56.171875 C 67.597656 -53.273438 69.929688 -49.757812 71.609375 -45.625 C 73.285156 -41.5 74.125 -36.945312 74.125 -31.96875 C 74.125 -26.882812 73.285156 -22.300781 71.609375 -18.21875 C 69.929688 -14.144531 67.597656 -10.65625 64.609375 -7.75 C 61.617188 -4.851562 58.035156 -2.609375 53.859375 -1.015625 C 49.691406 0.566406 45.113281 1.359375 40.125 1.359375 Z M 40.125 -11.421875 C 45.832031 -11.421875 50.429688 -13.253906 53.921875 -16.921875 C 57.421875 -20.597656 59.171875 -25.613281 59.171875 -31.96875 C 59.171875 -38.3125 57.421875 -43.316406 53.921875 -46.984375 C 50.429688 -50.660156 45.832031 -52.5 40.125 -52.5 C 34.414062 -52.5 29.8125 -50.660156 26.3125 -46.984375 C 22.820312 -43.316406 21.078125 -38.3125 21.078125 -31.96875 C 21.078125 -25.613281 22.820312 -20.597656 26.3125 -16.921875 C 29.8125 -13.253906 34.414062 -11.421875 40.125 -11.421875 Z M 40.125 -11.421875 "/></g></g></g><g fill="#ffffff" fill-opacity="1"><g transform="translate(203.532758, 234.660674)"><g><path d="M 3.671875 25.578125 C 0.316406 25.578125 -2.71875 25.210938 -5.4375 24.484375 L -5.4375 12.78125 C -3.53125 13.050781 -1.535156 13.1875 0.546875 13.1875 C 6.523438 13.1875 9.515625 10.285156 9.515625 4.484375 L 9.515625 -63.921875 L 24.203125 -63.921875 L 24.203125 5.71875 C 24.203125 12.507812 22.546875 17.515625 19.234375 20.734375 C 15.929688 23.960938 10.742188 25.578125 3.671875 25.578125 Z M 16.859375 -76.03125 C 14.234375 -76.03125 12.125 -76.800781 10.53125 -78.34375 C 8.945312 -79.882812 8.15625 -81.878906 8.15625 -84.328125 C 8.15625 -86.773438 8.945312 -88.742188 10.53125 -90.234375 C 12.125 -91.734375 14.234375 -92.484375 16.859375 -92.484375 C 19.492188 -92.484375 21.601562 -91.734375 23.1875 -90.234375 C 24.78125 -88.742188 25.578125 -86.773438 25.578125 -84.328125 C 25.578125 -81.878906 24.78125 -79.882812 23.1875 -78.34375 C 21.601562 -76.800781 19.492188 -76.03125 16.859375 -76.03125 Z M 16.859375 -76.03125 "/></g></g></g><g fill="#ffffff" fill-opacity="1"><g transform="translate(234.409195, 234.660674)"><g><path d="M 40.8125 1.359375 C 35.90625 1.359375 31.34375 0.632812 27.125 -0.8125 C 22.914062 -2.269531 19.242188 -4.378906 16.109375 -7.140625 C 12.984375 -9.910156 10.535156 -13.378906 8.765625 -17.546875 C 7.003906 -21.710938 6.125 -26.519531 6.125 -31.96875 C 6.125 -37.039062 6.960938 -41.640625 8.640625 -45.765625 C 10.316406 -49.890625 12.628906 -53.398438 15.578125 -56.296875 C 18.523438 -59.203125 21.96875 -61.425781 25.90625 -62.96875 C 29.851562 -64.507812 34.140625 -65.28125 38.765625 -65.28125 C 43.484375 -65.28125 47.769531 -64.578125 51.625 -63.171875 C 55.476562 -61.773438 58.765625 -59.847656 61.484375 -57.390625 C 64.203125 -54.941406 66.304688 -52.019531 67.796875 -48.625 C 69.296875 -45.226562 70.046875 -41.535156 70.046875 -37.546875 C 70.046875 -36.003906 69.84375 -34.300781 69.4375 -32.4375 C 69.03125 -30.582031 68.460938 -29.066406 67.734375 -27.890625 L 21.078125 -27.890625 C 21.710938 -22.359375 23.890625 -18.160156 27.609375 -15.296875 C 31.328125 -12.441406 36.179688 -11.015625 42.171875 -11.015625 C 46.242188 -11.015625 49.890625 -11.625 53.109375 -12.84375 C 56.328125 -14.070312 59.4375 -15.773438 62.4375 -17.953125 L 67.328125 -7.34375 C 59.984375 -1.539062 51.144531 1.359375 40.8125 1.359375 Z M 39.171875 -53.3125 C 34.722656 -53.3125 30.84375 -51.992188 27.53125 -49.359375 C 24.226562 -46.734375 22.078125 -43.113281 21.078125 -38.5 L 54.8125 -38.5 C 55 -39.039062 55.09375 -39.492188 55.09375 -39.859375 C 55.09375 -43.847656 53.773438 -47.085938 51.140625 -49.578125 C 48.515625 -52.066406 44.523438 -53.3125 39.171875 -53.3125 Z M 39.171875 -53.3125 "/></g></g></g><g fill="#ffffff" fill-opacity="1"><g transform="translate(307.723779, 234.660674)"><g><path d="M 40.125 1.359375 C 35.132812 1.359375 30.550781 0.566406 26.375 -1.015625 C 22.207031 -2.609375 18.628906 -4.851562 15.640625 -7.75 C 12.648438 -10.65625 10.316406 -14.144531 8.640625 -18.21875 C 6.960938 -22.300781 6.125 -26.882812 6.125 -31.96875 C 6.125 -36.945312 6.960938 -41.5 8.640625 -45.625 C 10.316406 -49.757812 12.648438 -53.273438 15.640625 -56.171875 C 18.628906 -59.078125 22.207031 -61.320312 26.375 -62.90625 C 30.550781 -64.488281 35.132812 -65.28125 40.125 -65.28125 C 44.75 -65.28125 48.960938 -64.625 52.765625 -63.3125 C 56.578125 -62 60.023438 -60.117188 63.109375 -57.671875 L 57.8125 -46.515625 C 52.09375 -50.503906 46.195312 -52.5 40.125 -52.5 C 34.414062 -52.5 29.8125 -50.6875 26.3125 -47.0625 C 22.820312 -43.4375 21.078125 -38.40625 21.078125 -31.96875 C 21.078125 -25.53125 22.820312 -20.492188 26.3125 -16.859375 C 29.8125 -13.234375 34.414062 -11.421875 40.125 -11.421875 C 46.195312 -11.421875 52.09375 -13.414062 57.8125 -17.40625 L 63.109375 -6.25 C 60.023438 -3.800781 56.578125 -1.921875 52.765625 -0.609375 C 48.960938 0.703125 44.75 1.359375 40.125 1.359375 Z M 40.125 1.359375 "/></g></g></g><g fill="#ffffff" fill-opacity="1"><g transform="translate(373.421229, 234.660674)"><g><path d="M 37.265625 0.8125 C 30.191406 0.8125 25 -0.796875 21.6875 -4.015625 C 18.382812 -7.234375 16.734375 -12.242188 16.734375 -19.046875 L 16.734375 -51.546875 L 3 -51.546875 L 3 -63.921875 L 16.734375 -63.921875 L 16.734375 -82.15625 L 31.421875 -82.15625 L 31.421875 -63.921875 L 47.734375 -63.921875 L 47.734375 -51.546875 L 31.421875 -51.546875 L 31.421875 -20.265625 C 31.421875 -14.460938 34.410156 -11.5625 40.390625 -11.5625 C 41.484375 -11.5625 42.753906 -11.601562 44.203125 -11.6875 C 45.648438 -11.78125 46.828125 -11.921875 47.734375 -12.109375 L 47.734375 -0.40625 C 46.472656 -0.0390625 44.890625 0.25 42.984375 0.46875 C 41.078125 0.695312 39.171875 0.8125 37.265625 0.8125 Z M 37.265625 0.8125 "/></g></g></g><g fill="#ffffff" fill-opacity="1"><g transform="translate(0.972691, 128.877958)"><g><path d="M 47.109375 1.40625 C 41.765625 1.40625 37.171875 0.375 33.328125 -1.6875 C 29.484375 -3.75 26.53125 -6.46875 24.46875 -9.84375 L 24.46875 0 L 9.84375 0 L 9.84375 -93.921875 L 25.03125 -93.921875 L 25.03125 -57.234375 C 27.1875 -60.328125 30.140625 -62.8125 33.890625 -64.6875 C 37.640625 -66.5625 42.046875 -67.5 47.109375 -67.5 C 51.609375 -67.5 55.78125 -66.703125 59.625 -65.109375 C 63.46875 -63.515625 66.816406 -61.238281 69.671875 -58.28125 C 72.523438 -55.332031 74.75 -51.722656 76.34375 -47.453125 C 77.9375 -43.191406 78.734375 -38.390625 78.734375 -33.046875 C 78.734375 -27.703125 77.9375 -22.894531 76.34375 -18.625 C 74.75 -14.363281 72.523438 -10.753906 69.671875 -7.796875 C 66.816406 -4.847656 63.46875 -2.578125 59.625 -0.984375 C 55.78125 0.609375 51.609375 1.40625 47.109375 1.40625 Z M 43.734375 -11.8125 C 49.453125 -11.8125 54.113281 -13.707031 57.71875 -17.5 C 61.332031 -21.300781 63.140625 -26.484375 63.140625 -33.046875 C 63.140625 -39.609375 61.332031 -44.785156 57.71875 -48.578125 C 54.113281 -52.378906 49.453125 -54.28125 43.734375 -54.28125 C 38.109375 -54.28125 33.488281 -52.378906 29.875 -48.578125 C 26.269531 -44.785156 24.46875 -39.609375 24.46875 -33.046875 C 24.46875 -26.484375 26.269531 -21.300781 29.875 -17.5 C 33.488281 -13.707031 38.109375 -11.8125 43.734375 -11.8125 Z M 43.734375 -11.8125 "/></g></g></g><g fill="#ffffff" fill-opacity="1"><g transform="translate(82.80656, 128.877958)"><g><path d="M 42.1875 1.40625 C 37.125 1.40625 32.410156 0.65625 28.046875 -0.84375 C 23.691406 -2.34375 19.894531 -4.519531 16.65625 -7.375 C 13.425781 -10.238281 10.894531 -13.828125 9.0625 -18.140625 C 7.238281 -22.453125 6.328125 -27.421875 6.328125 -33.046875 C 6.328125 -38.296875 7.191406 -43.050781 8.921875 -47.3125 C 10.660156 -51.582031 13.050781 -55.21875 16.09375 -58.21875 C 19.144531 -61.21875 22.707031 -63.515625 26.78125 -65.109375 C 30.863281 -66.703125 35.296875 -67.5 40.078125 -67.5 C 44.953125 -67.5 49.378906 -66.769531 53.359375 -65.3125 C 57.347656 -63.863281 60.75 -61.875 63.5625 -59.34375 C 66.375 -56.8125 68.550781 -53.785156 70.09375 -50.265625 C 71.632812 -46.753906 72.40625 -42.9375 72.40625 -38.8125 C 72.40625 -37.21875 72.191406 -35.457031 71.765625 -33.53125 C 71.347656 -31.613281 70.765625 -30.046875 70.015625 -28.828125 L 21.796875 -28.828125 C 22.453125 -23.109375 24.703125 -18.769531 28.546875 -15.8125 C 32.390625 -12.863281 37.40625 -11.390625 43.59375 -11.390625 C 47.8125 -11.390625 51.582031 -12.019531 54.90625 -13.28125 C 58.238281 -14.550781 61.453125 -16.3125 64.546875 -18.5625 L 69.609375 -7.59375 C 62.015625 -1.59375 52.875 1.40625 42.1875 1.40625 Z M 40.5 -55.125 C 35.90625 -55.125 31.894531 -53.765625 28.46875 -51.046875 C 25.050781 -48.328125 22.828125 -44.578125 21.796875 -39.796875 L 56.671875 -39.796875 C 56.859375 -40.359375 56.953125 -40.828125 56.953125 -41.203125 C 56.953125 -45.328125 55.59375 -48.675781 52.875 -51.25 C 50.15625 -53.832031 46.03125 -55.125 40.5 -55.125 Z M 40.5 -55.125 "/></g></g></g><g fill="#ffffff" fill-opacity="1"><g transform="translate(158.31306, 128.877958)"><g><path d="M 55.125 0 L 55.125 -38.8125 C 55.125 -44.15625 54.019531 -48.066406 51.8125 -50.546875 C 49.613281 -53.035156 46.265625 -54.28125 41.765625 -54.28125 C 36.515625 -54.28125 32.410156 -52.5 29.453125 -48.9375 C 26.503906 -45.375 25.03125 -40.40625 25.03125 -34.03125 L 25.03125 0 L 9.84375 0 L 9.84375 -66.09375 L 24.46875 -66.09375 L 24.46875 -56.8125 C 26.4375 -60.09375 29.222656 -62.691406 32.828125 -64.609375 C 36.441406 -66.535156 40.875 -67.5 46.125 -67.5 C 53.71875 -67.5 59.644531 -65.34375 63.90625 -61.03125 C 68.164062 -56.71875 70.296875 -50.015625 70.296875 -40.921875 L 70.296875 0 Z M 55.125 0 "/></g></g></g><g fill="#ffffff" fill-opacity="1"><g transform="translate(233.116394, 128.877958)"><g><path d="M 38.53125 0.84375 C 31.21875 0.84375 25.847656 -0.816406 22.421875 -4.140625 C 19.003906 -7.472656 17.296875 -12.65625 17.296875 -19.6875 L 17.296875 -53.296875 L 3.09375 -53.296875 L 3.09375 -66.09375 L 17.296875 -66.09375 L 17.296875 -84.921875 L 32.484375 -84.921875 L 32.484375 -66.09375 L 49.359375 -66.09375 L 49.359375 -53.296875 L 32.484375 -53.296875 L 32.484375 -20.953125 C 32.484375 -14.953125 35.578125 -11.953125 41.765625 -11.953125 C 42.890625 -11.953125 44.203125 -12 45.703125 -12.09375 C 47.203125 -12.1875 48.421875 -12.328125 49.359375 -12.515625 L 49.359375 -0.421875 C 48.046875 -0.046875 46.40625 0.253906 44.4375 0.484375 C 42.46875 0.722656 40.5 0.84375 38.53125 0.84375 Z M 38.53125 0.84375 "/></g></g></g><g fill="#ffffff" fill-opacity="1"><g transform="translate(284.578831, 128.877958)"><g><path d="M 30.796875 1.40625 C 27.234375 1.40625 23.953125 0.984375 20.953125 0.140625 C 17.953125 -0.703125 15.375 -1.96875 13.21875 -3.65625 C 11.0625 -5.34375 9.375 -7.425781 8.15625 -9.90625 C 6.9375 -12.394531 6.328125 -15.234375 6.328125 -18.421875 C 6.328125 -21.609375 6.9375 -24.375 8.15625 -26.71875 C 9.375 -29.0625 11.0625 -31.050781 13.21875 -32.6875 C 15.375 -34.332031 17.953125 -35.644531 20.953125 -36.625 C 23.953125 -37.613281 27.234375 -38.34375 30.796875 -38.8125 L 53.4375 -41.625 C 52.875 -46.125 51.09375 -49.40625 48.09375 -51.46875 C 45.09375 -53.53125 41.4375 -54.5625 37.125 -54.5625 C 33.9375 -54.5625 30.675781 -53.972656 27.34375 -52.796875 C 24.019531 -51.628906 20.390625 -49.734375 16.453125 -47.109375 L 11.109375 -58.359375 C 15.046875 -61.265625 19.265625 -63.515625 23.765625 -65.109375 C 28.265625 -66.703125 32.90625 -67.5 37.6875 -67.5 C 47.90625 -67.5 55.660156 -65.222656 60.953125 -60.671875 C 66.253906 -56.128906 68.90625 -49.3125 68.90625 -40.21875 L 68.90625 0 L 54.28125 0 L 54.28125 -8.859375 C 49.3125 -2.015625 41.484375 1.40625 30.796875 1.40625 Z M 34.875 -10.96875 C 37.875 -10.96875 40.546875 -11.4375 42.890625 -12.375 C 45.234375 -13.3125 47.203125 -14.578125 48.796875 -16.171875 C 50.390625 -17.765625 51.609375 -19.566406 52.453125 -21.578125 C 53.296875 -23.597656 53.71875 -25.734375 53.71875 -27.984375 L 53.71875 -30.65625 L 35.4375 -28.265625 C 30.9375 -27.609375 27.535156 -26.625 25.234375 -25.3125 C 22.941406 -24 21.796875 -21.9375 21.796875 -19.125 C 21.796875 -16.5 22.941406 -14.484375 25.234375 -13.078125 C 27.535156 -11.671875 30.75 -10.96875 34.875 -10.96875 Z M 34.875 -10.96875 "/></g></g></g><g fill="#ffffff" fill-opacity="1"><g transform="translate(360.085313, 128.877958)"><g><path d="M 9.84375 0 L 9.84375 -93.921875 L 25.03125 -93.921875 L 25.03125 0 Z M 9.84375 0 "/></g></g></g><g fill="#ffffff" fill-opacity="1"><g transform="translate(391.721941, 128.877958)"><g><path d="M 30.796875 1.40625 C 27.234375 1.40625 23.953125 0.984375 20.953125 0.140625 C 17.953125 -0.703125 15.375 -1.96875 13.21875 -3.65625 C 11.0625 -5.34375 9.375 -7.425781 8.15625 -9.90625 C 6.9375 -12.394531 6.328125 -15.234375 6.328125 -18.421875 C 6.328125 -21.609375 6.9375 -24.375 8.15625 -26.71875 C 9.375 -29.0625 11.0625 -31.050781 13.21875 -32.6875 C 15.375 -34.332031 17.953125 -35.644531 20.953125 -36.625 C 23.953125 -37.613281 27.234375 -38.34375 30.796875 -38.8125 L 53.4375 -41.625 C 52.875 -46.125 51.09375 -49.40625 48.09375 -51.46875 C 45.09375 -53.53125 41.4375 -54.5625 37.125 -54.5625 C 33.9375 -54.5625 30.675781 -53.972656 27.34375 -52.796875 C 24.019531 -51.628906 20.390625 -49.734375 16.453125 -47.109375 L 11.109375 -58.359375 C 15.046875 -61.265625 19.265625 -63.515625 23.765625 -65.109375 C 28.265625 -66.703125 32.90625 -67.5 37.6875 -67.5 C 47.90625 -67.5 55.660156 -65.222656 60.953125 -60.671875 C 66.253906 -56.128906 68.90625 -49.3125 68.90625 -40.21875 L 68.90625 0 L 54.28125 0 L 54.28125 -8.859375 C 49.3125 -2.015625 41.484375 1.40625 30.796875 1.40625 Z M 34.875 -10.96875 C 37.875 -10.96875 40.546875 -11.4375 42.890625 -12.375 C 45.234375 -13.3125 47.203125 -14.578125 48.796875 -16.171875 C 50.390625 -17.765625 51.609375 -19.566406 52.453125 -21.578125 C 53.296875 -23.597656 53.71875 -25.734375 53.71875 -27.984375 L 53.71875 -30.65625 L 35.4375 -28.265625 C 30.9375 -27.609375 27.535156 -26.625 25.234375 -25.3125 C 22.941406 -24 21.796875 -21.9375 21.796875 -19.125 C 21.796875 -16.5 22.941406 -14.484375 25.234375 -13.078125 C 27.535156 -11.671875 30.75 -10.96875 34.875 -10.96875 Z M 34.875 -10.96875 "/></g></g></g></g></svg>
